<svg xmlns="http://www.w3.org/2000/svg" height="30" viewBox="0 -960 960 960" width="30" fill='#f5f5f5'><path d="M229.058-75.457q-30.994 0-53.374-22.38-22.38-22.379-22.38-53.373v-498.696q0-31.059 22.38-53.486 22.38-22.427 53.374-22.427h93.065v-6.667q.558-65.435 46.458-110.858 45.9-45.424 111.377-45.424t111.419 45.424q45.942 45.423 46.5 110.858v6.667h93.065q31.06 0 53.486 22.427 22.427 22.427 22.427 53.486v498.696q0 30.994-22.427 53.374-22.426 22.38-53.486 22.38H229.058Zm0-75.753h501.884v-498.696h-93.065v81.964q0 16.159-10.972 27.098-10.972 10.938-27.022 10.938-16.05 0-26.905-10.938-10.855-10.939-10.855-27.098v-81.964H397.877v81.964q0 16.159-10.972 27.098-10.972 10.938-27.022 10.938-16.05 0-26.905-10.938-10.855-10.939-10.855-27.098v-81.964h-93.065v498.696Zm169.058-574.609h163.768v-6.667q-.558-33.782-24.233-57.156-23.676-23.373-57.674-23.373-33.999 0-57.651 23.373-23.652 23.374-24.21 57.156v6.667ZM229.058-151.21v-498.696 498.696Z"/></svg>